{
    "asset" : {
        "generator" : "Khronos glTF Blender I/O v3.2.40",
        "version" : "2.0"
    },
    "scene" : 0,
    "scenes" : [
        {
            "name" : "Scene",
            "nodes" : [
                0
            ]
        }
    ],
    "nodes" : [
        {
            "mesh" : 0,
            "name" : "Cube.002",
            "scale" : [
                0.22205983102321625,
                0.07673341035842896,
                0.41023266315460205
            ]
        }
    ],
    "materials" : [
        {
            "doubleSided" : true,
            "name" : "Material.001",
            "pbrMetallicRoughness" : {
                "baseColorFactor" : [
                    0.8000000715255737,
                    0.5131088495254517,
                    0.009034070186316967,
                    1
                ],
                "metallicFactor" : 0,
                "roughnessFactor" : 0.5
            }
        }
    ],
    "meshes" : [
        {
            "name" : "Cube.006",
            "primitives" : [
                {
                    "attributes" : {
                        "POSITION" : 0,
                        "NORMAL" : 1,
                        "TEXCOORD_0" : 2
                    },
                    "indices" : 3,
                    "material" : 0
                }
            ]
        }
    ],
    "accessors" : [
        {
            "bufferView" : 0,
            "componentType" : 5126,
            "count" : 1182,
            "max" : [
                4.404088497161865,
                0.995434582233429,
                2.420903205871582
            ],
            "min" : [
                -4.535437107086182,
                -1.0045669078826904,
                -2.411151170730591
            ],
            "type" : "VEC3"
        },
        {
            "bufferView" : 1,
            "componentType" : 5126,
            "count" : 1182,
            "type" : "VEC3"
        },
        {
            "bufferView" : 2,
            "componentType" : 5126,
            "count" : 1182,
            "type" : "VEC2"
        },
        {
            "bufferView" : 3,
            "componentType" : 5123,
            "count" : 1230,
            "type" : "SCALAR"
        }
    ],
    "bufferViews" : [
        {
            "buffer" : 0,
            "byteLength" : 14184,
            "byteOffset" : 0
        },
        {
            "buffer" : 0,
            "byteLength" : 14184,
            "byteOffset" : 14184
        },
        {
            "buffer" : 0,
            "byteLength" : 9456,
            "byteOffset" : 28368
        },
        {
            "buffer" : 0,
            "byteLength" : 2460,
            "byteOffset" : 37824
        }
    ],
    "buffers" : [
        {
            "byteLength" : 40284,
            "uri" : "data:application/octet-stream;base64,"
        }
    ]
}
