{
    "asset" : {
        "generator" : "Khronos glTF Blender I/O v3.2.40",
        "version" : "2.0"
    },
    "scene" : 0,
    "scenes" : [
        {
            "name" : "Scene",
            "nodes" : [
                0
            ]
        }
    ],
    "nodes" : [
        {
            "mesh" : 0,
            "name" : "Cylinder.002",
            "rotation" : [
                0,
                0,
                1,
                1.6292068494294654e-07
            ],
            "scale" : [
                0.7979819178581238,
                1.6017712354660034,
                0.7979819178581238
            ],
            "translation" : [
                0,
                40.30961608886719,
                0
            ]
        }
    ],
    "materials" : [
        {
            "doubleSided" : true,
            "name" : "Material.001",
            "pbrMetallicRoughness" : {
                "baseColorFactor" : [
                    0.027452409267425537,
                    0.2568647563457489,
                    0.8000000715255737,
                    1
                ],
                "metallicFactor" : 0,
                "roughnessFactor" : 0.5
            }
        },
        {
            "doubleSided" : true,
            "name" : "Material.002",
            "pbrMetallicRoughness" : {
                "baseColorFactor" : [
                    0.8000000715255737,
                    0.045644983649253845,
                    0.026866544038057327,
                    1
                ],
                "metallicFactor" : 0,
                "roughnessFactor" : 0.5
            }
        }
    ],
    "meshes" : [
        {
            "name" : "Cylinder.010",
            "primitives" : [
                {
                    "attributes" : {
                        "POSITION" : 0,
                        "NORMAL" : 1,
                        "TEXCOORD_0" : 2
                    },
                    "indices" : 3,
                    "material" : 0
                },
                {
                    "attributes" : {
                        "POSITION" : 4,
                        "NORMAL" : 5,
                        "TEXCOORD_0" : 6
                    },
                    "indices" : 7,
                    "material" : 1
                }
            ]
        }
    ],
    "accessors" : [
        {
            "bufferView" : 0,
            "componentType" : 5126,
            "count" : 22359,
            "max" : [
                6.2750349044799805,
                49.00003433227539,
                6.2750349044799805
            ],
            "min" : [
                -6.2750349044799805,
                -0.9999988079071045,
                -6.2750349044799805
            ],
            "type" : "VEC3"
        },
        {
            "bufferView" : 1,
            "componentType" : 5126,
            "count" : 22359,
            "type" : "VEC3"
        },
        {
            "bufferView" : 2,
            "componentType" : 5126,
            "count" : 22359,
            "type" : "VEC2"
        },
        {
            "bufferView" : 3,
            "componentType" : 5123,
            "count" : 25224,
            "type" : "SCALAR"
        },
        {
            "bufferView" : 4,
            "componentType" : 5126,
            "count" : 20626,
            "max" : [
                5.326744079589844,
                48.498165130615234,
                5.328011512756348
            ],
            "min" : [
                -5.326744556427002,
                -0.49886611104011536,
                -5.328012466430664
            ],
            "type" : "VEC3"
        },
        {
            "bufferView" : 5,
            "componentType" : 5126,
            "count" : 20626,
            "type" : "VEC3"
        },
        {
            "bufferView" : 6,
            "componentType" : 5126,
            "count" : 20626,
            "type" : "VEC2"
        },
        {
            "bufferView" : 7,
            "componentType" : 5123,
            "count" : 20856,
            "type" : "SCALAR"
        }
    ],
    "bufferViews" : [
        {
            "buffer" : 0,
            "byteLength" : 268308,
            "byteOffset" : 0
        },
        {
            "buffer" : 0,
            "byteLength" : 268308,
            "byteOffset" : 268308
        },
        {
            "buffer" : 0,
            "byteLength" : 178872,
            "byteOffset" : 536616
        },
        {
            "buffer" : 0,
            "byteLength" : 50448,
            "byteOffset" : 715488
        },
        {
            "buffer" : 0,
            "byteLength" : 247512,
            "byteOffset" : 765936
        },
        {
            "buffer" : 0,
            "byteLength" : 247512,
            "byteOffset" : 1013448
        },
        {
            "buffer" : 0,
            "byteLength" : 165008,
            "byteOffset" : 1260960
        },
        {
            "buffer" : 0,
            "byteLength" : 41712,
            "byteOffset" : 1425968
        }
    ],
    "buffers" : [
        {
            "byteLength" : 1467680,
            "uri" : "data:application/octet-stream;base64,"
        }
    ]
}
