{
    "asset" : {
        "generator" : "Khronos glTF Blender I/O v3.2.40",
        "version" : "2.0"
    },
    "scene" : 0,
    "scenes" : [
        {
            "name" : "Scene",
            "nodes" : [
                0,
                1,
                2,
                3,
                4,
                5,
                6,
                7,
                8
            ]
        }
    ],
    "nodes" : [
        {
            "mesh" : 0,
            "name" : "Middle cathode",
            "scale" : [
                0.28216058015823364,
                1.602821707725525,
                0.28216058015823364
            ],
            "translation" : [
                0,
                1.5222188234329224,
                0
            ]
        },
        {
            "mesh" : 1,
            "name" : "Bottom",
            "scale" : [
                0.7289322018623352,
                0.1461947113275528,
                0.7289322018623352
            ],
            "translation" : [
                0,
                0.04347037151455879,
                0
            ]
        },
        {
            "mesh" : 2,
            "name" : "Top",
            "scale" : [
                0.9453275799751282,
                0.1290973722934723,
                0.9453275799751282
            ],
            "translation" : [
                0,
                2.509608268737793,
                0
            ]
        },
        {
            "mesh" : 3,
            "name" : "Cylinder.003",
            "scale" : [
                1.0711033344268799,
                1.409216046333313,
                1.0711033344268799
            ],
            "translation" : [
                0,
                1.2994710206985474,
                0
            ]
        },
        {
            "mesh" : 4,
            "name" : "Cylinder.004",
            "scale" : [
                0.9351433515548706,
                1.409216046333313,
                0.9351433515548706
            ],
            "translation" : [
                0,
                1.2994710206985474,
                0
            ]
        },
        {
            "mesh" : 5,
            "name" : "Cylinder.001",
            "scale" : [
                0.8285560011863708,
                1.409216046333313,
                0.8285560011863708
            ],
            "translation" : [
                0,
                1.2994710206985474,
                0
            ]
        },
        {
            "mesh" : 6,
            "name" : "fat layer",
            "scale" : [
                0.7239313125610352,
                1,
                0.7239313125610352
            ],
            "translation" : [
                0,
                1.2994710206985474,
                0
            ]
        },
        {
            "mesh" : 7,
            "name" : "Cylinder.002",
            "scale" : [
                1.1232130527496338,
                1.409216046333313,
                1.1232130527496338
            ],
            "translation" : [
                0,
                1.2994710206985474,
                0
            ]
        },
        {
            "mesh" : 8,
            "name" : "Bottom.001",
            "scale" : [
                0.9610273838043213,
                0.1461947113275528,
                0.9610273838043213
            ],
            "translation" : [
                0.0321972481906414,
                0.028967468068003654,
                0.007315215189009905
            ]
        }
    ],
    "materials" : [
        {
            "doubleSided" : true,
            "name" : "Material.004",
            "pbrMetallicRoughness" : {
                "baseColorFactor" : [
                    0.04202748462557793,
                    0.03903024271130562,
                    0.04126567021012306,
                    1
                ],
                "metallicFactor" : 0,
                "roughnessFactor" : 0.5
            }
        },
        {
            "doubleSided" : true,
            "name" : "Material.002",
            "pbrMetallicRoughness" : {
                "baseColorFactor" : [
                    0.8000000715255737,
                    0.6476674675941467,
                    0.004678144585341215,
                    1
                ],
                "metallicFactor" : 0,
                "roughnessFactor" : 0.5
            }
        },
        {
            "doubleSided" : true,
            "name" : "Material.003",
            "pbrMetallicRoughness" : {
                "baseColorFactor" : [
                    0.8000000715255737,
                    0,
                    0.0006503331824205816,
                    1
                ],
                "metallicFactor" : 0,
                "roughnessFactor" : 0.5
            }
        },
        {
            "doubleSided" : true,
            "name" : "Material.001",
            "pbrMetallicRoughness" : {
                "baseColorFactor" : [
                    0.004678144585341215,
                    0.01714000664651394,
                    0.8000000715255737,
                    1
                ],
                "metallicFactor" : 0,
                "roughnessFactor" : 0.5
            }
        },
        {
            "doubleSided" : true,
            "name" : "Material",
            "pbrMetallicRoughness" : {
                "baseColorFactor" : [
                    0,
                    0.5809346437454224,
                    0.8000000715255737,
                    1
                ],
                "metallicFactor" : 0,
                "roughnessFactor" : 0.4000000059604645
            }
        }
    ],
    "meshes" : [
        {
            "name" : "Cylinder",
            "primitives" : [
                {
                    "attributes" : {
                        "POSITION" : 0,
                        "NORMAL" : 1,
                        "TEXCOORD_0" : 2
                    },
                    "indices" : 3,
                    "material" : 0
                }
            ]
        },
        {
            "name" : "Cylinder.001",
            "primitives" : [
                {
                    "attributes" : {
                        "POSITION" : 4,
                        "NORMAL" : 5,
                        "TEXCOORD_0" : 6
                    },
                    "indices" : 3,
                    "material" : 0
                }
            ]
        },
        {
            "name" : "Cylinder.002",
            "primitives" : [
                {
                    "attributes" : {
                        "POSITION" : 7,
                        "NORMAL" : 8,
                        "TEXCOORD_0" : 9
                    },
                    "indices" : 10,
                    "material" : 0
                }
            ]
        },
        {
            "name" : "Cylinder.003",
            "primitives" : [
                {
                    "attributes" : {
                        "POSITION" : 11,
                        "NORMAL" : 12,
                        "TEXCOORD_0" : 13
                    },
                    "indices" : 14,
                    "material" : 1
                }
            ]
        },
        {
            "name" : "Cylinder.005",
            "primitives" : [
                {
                    "attributes" : {
                        "POSITION" : 15,
                        "NORMAL" : 16,
                        "TEXCOORD_0" : 17
                    },
                    "indices" : 18,
                    "material" : 2
                }
            ]
        },
        {
            "name" : "Cylinder.006",
            "primitives" : [
                {
                    "attributes" : {
                        "POSITION" : 19,
                        "NORMAL" : 20,
                        "TEXCOORD_0" : 21
                    },
                    "indices" : 22,
                    "material" : 1
                }
            ]
        },
        {
            "name" : "Cylinder.007",
            "primitives" : [
                {
                    "attributes" : {
                        "POSITION" : 23,
                        "NORMAL" : 24,
                        "TEXCOORD_0" : 25
                    },
                    "indices" : 26,
                    "material" : 3
                }
            ]
        },
        {
            "name" : "Cylinder.008",
            "primitives" : [
                {
                    "attributes" : {
                        "POSITION" : 27,
                        "NORMAL" : 28,
                        "TEXCOORD_0" : 29
                    },
                    "indices" : 30,
                    "material" : 4
                }
            ]
        },
        {
            "name" : "Cylinder.009",
            "primitives" : [
                {
                    "attributes" : {
                        "POSITION" : 31,
                        "NORMAL" : 32,
                        "TEXCOORD_0" : 33
                    },
                    "indices" : 3,
                    "material" : 1
                }
            ]
        }
    ],
    "accessors" : [
        {
            "bufferView" : 0,
            "componentType" : 5126,
            "count" : 192,
            "max" : [
                1,
                1,
                1
            ],
            "min" : [
                -1,
                -1,
                -1
            ],
            "type" : "VEC3"
        },
        {
            "bufferView" : 1,
            "componentType" : 5126,
            "count" : 192,
            "type" : "VEC3"
        },
        {
            "bufferView" : 2,
            "componentType" : 5126,
            "count" : 192,
            "type" : "VEC2"
        },
        {
            "bufferView" : 3,
            "componentType" : 5123,
            "count" : 372,
            "type" : "SCALAR"
        },
        {
            "bufferView" : 4,
            "componentType" : 5126,
            "count" : 192,
            "max" : [
                1,
                1,
                1
            ],
            "min" : [
                -1,
                -1,
                -1
            ],
            "type" : "VEC3"
        },
        {
            "bufferView" : 5,
            "componentType" : 5126,
            "count" : 192,
            "type" : "VEC3"
        },
        {
            "bufferView" : 6,
            "componentType" : 5126,
            "count" : 192,
            "type" : "VEC2"
        },
        {
            "bufferView" : 7,
            "componentType" : 5126,
            "count" : 156,
            "max" : [
                0.9999999403953552,
                1,
                0.9999999403953552
            ],
            "min" : [
                -0.6981927752494812,
                -1,
                -0.9999999403953552
            ],
            "type" : "VEC3"
        },
        {
            "bufferView" : 8,
            "componentType" : 5126,
            "count" : 156,
            "type" : "VEC3"
        },
        {
            "bufferView" : 9,
            "componentType" : 5126,
            "count" : 156,
            "type" : "VEC2"
        },
        {
            "bufferView" : 10,
            "componentType" : 5123,
            "count" : 300,
            "type" : "SCALAR"
        },
        {
            "bufferView" : 11,
            "componentType" : 5126,
            "count" : 306,
            "max" : [
                1,
                0.9999999403953552,
                1
            ],
            "min" : [
                -0.6980658769607544,
                -1.000000238418579,
                -1
            ],
            "type" : "VEC3"
        },
        {
            "bufferView" : 12,
            "componentType" : 5126,
            "count" : 306,
            "type" : "VEC3"
        },
        {
            "bufferView" : 13,
            "componentType" : 5126,
            "count" : 306,
            "type" : "VEC2"
        },
        {
            "bufferView" : 14,
            "componentType" : 5123,
            "count" : 588,
            "type" : "SCALAR"
        },
        {
            "bufferView" : 15,
            "componentType" : 5126,
            "count" : 306,
            "max" : [
                1.0000001192092896,
                0.7729742527008057,
                1.0000001192092896
            ],
            "min" : [
                -0.6967514753341675,
                -0.8241279125213623,
                -1.0000001192092896
            ],
            "type" : "VEC3"
        },
        {
            "bufferView" : 16,
            "componentType" : 5126,
            "count" : 306,
            "type" : "VEC3"
        },
        {
            "bufferView" : 17,
            "componentType" : 5126,
            "count" : 306,
            "type" : "VEC2"
        },
        {
            "bufferView" : 18,
            "componentType" : 5123,
            "count" : 588,
            "type" : "SCALAR"
        },
        {
            "bufferView" : 19,
            "componentType" : 5126,
            "count" : 306,
            "max" : [
                1.0000001192092896,
                0.7729743123054504,
                1.0000001192092896
            ],
            "min" : [
                -0.6954193115234375,
                -0.8241278529167175,
                -1.0000001192092896
            ],
            "type" : "VEC3"
        },
        {
            "bufferView" : 20,
            "componentType" : 5126,
            "count" : 306,
            "type" : "VEC3"
        },
        {
            "bufferView" : 21,
            "componentType" : 5126,
            "count" : 306,
            "type" : "VEC2"
        },
        {
            "bufferView" : 22,
            "componentType" : 5123,
            "count" : 588,
            "type" : "SCALAR"
        },
        {
            "bufferView" : 23,
            "componentType" : 5126,
            "count" : 304,
            "max" : [
                1,
                1.088653326034546,
                1
            ],
            "min" : [
                -0.6937302350997925,
                -1.159224510192871,
                -1
            ],
            "type" : "VEC3"
        },
        {
            "bufferView" : 24,
            "componentType" : 5126,
            "count" : 304,
            "type" : "VEC3"
        },
        {
            "bufferView" : 25,
            "componentType" : 5126,
            "count" : 304,
            "type" : "VEC2"
        },
        {
            "bufferView" : 26,
            "componentType" : 5123,
            "count" : 588,
            "type" : "SCALAR"
        },
        {
            "bufferView" : 27,
            "componentType" : 5126,
            "count" : 312,
            "max" : [
                0.9999999403953552,
                1,
                0.9999999403953552
            ],
            "min" : [
                -0.6980658173561096,
                -1.000000238418579,
                -0.9999999403953552
            ],
            "type" : "VEC3"
        },
        {
            "bufferView" : 28,
            "componentType" : 5126,
            "count" : 312,
            "type" : "VEC3"
        },
        {
            "bufferView" : 29,
            "componentType" : 5126,
            "count" : 312,
            "type" : "VEC2"
        },
        {
            "bufferView" : 30,
            "componentType" : 5123,
            "count" : 606,
            "type" : "SCALAR"
        },
        {
            "bufferView" : 31,
            "componentType" : 5126,
            "count" : 192,
            "max" : [
                1,
                1,
                1
            ],
            "min" : [
                -1,
                -1,
                -1
            ],
            "type" : "VEC3"
        },
        {
            "bufferView" : 32,
            "componentType" : 5126,
            "count" : 192,
            "type" : "VEC3"
        },
        {
            "bufferView" : 33,
            "componentType" : 5126,
            "count" : 192,
            "type" : "VEC2"
        }
    ],
    "bufferViews" : [
        {
            "buffer" : 0,
            "byteLength" : 2304,
            "byteOffset" : 0
        },
        {
            "buffer" : 0,
            "byteLength" : 2304,
            "byteOffset" : 2304
        },
        {
            "buffer" : 0,
            "byteLength" : 1536,
            "byteOffset" : 4608
        },
        {
            "buffer" : 0,
            "byteLength" : 744,
            "byteOffset" : 6144
        },
        {
            "buffer" : 0,
            "byteLength" : 2304,
            "byteOffset" : 6888
        },
        {
            "buffer" : 0,
            "byteLength" : 2304,
            "byteOffset" : 9192
        },
        {
            "buffer" : 0,
            "byteLength" : 1536,
            "byteOffset" : 11496
        },
        {
            "buffer" : 0,
            "byteLength" : 1872,
            "byteOffset" : 13032
        },
        {
            "buffer" : 0,
            "byteLength" : 1872,
            "byteOffset" : 14904
        },
        {
            "buffer" : 0,
            "byteLength" : 1248,
            "byteOffset" : 16776
        },
        {
            "buffer" : 0,
            "byteLength" : 600,
            "byteOffset" : 18024
        },
        {
            "buffer" : 0,
            "byteLength" : 3672,
            "byteOffset" : 18624
        },
        {
            "buffer" : 0,
            "byteLength" : 3672,
            "byteOffset" : 22296
        },
        {
            "buffer" : 0,
            "byteLength" : 2448,
            "byteOffset" : 25968
        },
        {
            "buffer" : 0,
            "byteLength" : 1176,
            "byteOffset" : 28416
        },
        {
            "buffer" : 0,
            "byteLength" : 3672,
            "byteOffset" : 29592
        },
        {
            "buffer" : 0,
            "byteLength" : 3672,
            "byteOffset" : 33264
        },
        {
            "buffer" : 0,
            "byteLength" : 2448,
            "byteOffset" : 36936
        },
        {
            "buffer" : 0,
            "byteLength" : 1176,
            "byteOffset" : 39384
        },
        {
            "buffer" : 0,
            "byteLength" : 3672,
            "byteOffset" : 40560
        },
        {
            "buffer" : 0,
            "byteLength" : 3672,
            "byteOffset" : 44232
        },
        {
            "buffer" : 0,
            "byteLength" : 2448,
            "byteOffset" : 47904
        },
        {
            "buffer" : 0,
            "byteLength" : 1176,
            "byteOffset" : 50352
        },
        {
            "buffer" : 0,
            "byteLength" : 3648,
            "byteOffset" : 51528
        },
        {
            "buffer" : 0,
            "byteLength" : 3648,
            "byteOffset" : 55176
        },
        {
            "buffer" : 0,
            "byteLength" : 2432,
            "byteOffset" : 58824
        },
        {
            "buffer" : 0,
            "byteLength" : 1176,
            "byteOffset" : 61256
        },
        {
            "buffer" : 0,
            "byteLength" : 3744,
            "byteOffset" : 62432
        },
        {
            "buffer" : 0,
            "byteLength" : 3744,
            "byteOffset" : 66176
        },
        {
            "buffer" : 0,
            "byteLength" : 2496,
            "byteOffset" : 69920
        },
        {
            "buffer" : 0,
            "byteLength" : 1212,
            "byteOffset" : 72416
        },
        {
            "buffer" : 0,
            "byteLength" : 2304,
            "byteOffset" : 73628
        },
        {
            "buffer" : 0,
            "byteLength" : 2304,
            "byteOffset" : 75932
        },
        {
            "buffer" : 0,
            "byteLength" : 1536,
            "byteOffset" : 78236
        }
    ],
    "buffers" : [
        {
            "byteLength" : 79772,
            "uri" : "data:application/octet-stream;base64,"
        }
    ]
}
