{
    "asset" : {
        "generator" : "Khronos glTF Blender I/O v3.2.40",
        "version" : "2.0"
    },
    "scene" : 0,
    "scenes" : [
        {
            "name" : "Scene",
            "nodes" : [
                0
            ]
        }
    ],
    "nodes" : [
        {
            "mesh" : 0,
            "name" : "Cube.002",
            "scale" : [
                0.3146061301231384,
                0.07673341035842896,
                0.5812024474143982
            ],
            "translation" : [
                4.996219635009766,
                0,
                -0.43114766478538513
            ]
        }
    ],
    "meshes" : [
        {
            "name" : "Cube.006",
            "primitives" : [
                {
                    "attributes" : {
                        "POSITION" : 0,
                        "NORMAL" : 1,
                        "TEXCOORD_0" : 2
                    },
                    "indices" : 3
                }
            ]
        }
    ],
    "accessors" : [
        {
            "bufferView" : 0,
            "componentType" : 5126,
            "count" : 1182,
            "max" : [
                1,
                1.0000011920928955,
                2.4226791858673096
            ],
            "min" : [
                -7.939525604248047,
                -1.0000001192092896,
                -2.4093754291534424
            ],
            "type" : "VEC3"
        },
        {
            "bufferView" : 1,
            "componentType" : 5126,
            "count" : 1182,
            "type" : "VEC3"
        },
        {
            "bufferView" : 2,
            "componentType" : 5126,
            "count" : 1182,
            "type" : "VEC2"
        },
        {
            "bufferView" : 3,
            "componentType" : 5123,
            "count" : 1230,
            "type" : "SCALAR"
        }
    ],
    "bufferViews" : [
        {
            "buffer" : 0,
            "byteLength" : 14184,
            "byteOffset" : 0
        },
        {
            "buffer" : 0,
            "byteLength" : 14184,
            "byteOffset" : 14184
        },
        {
            "buffer" : 0,
            "byteLength" : 9456,
            "byteOffset" : 28368
        },
        {
            "buffer" : 0,
            "byteLength" : 2460,
            "byteOffset" : 37824
        }
    ],
    "buffers" : [
        {
            "byteLength" : 40284,
            "uri" : "data:application/octet-stream;base64,"
        }
    ]
}
