{
    "asset" : {
        "generator" : "Khronos glTF Blender I/O v3.2.40",
        "version" : "2.0"
    },
    "scene" : 0,
    "scenes" : [
        {
            "name" : "Scene",
            "nodes" : [
                0,
                1,
                2,
                3,
                4,
                5,
                6,
                7
            ]
        }
    ],
    "nodes" : [
        {
            "mesh" : 0,
            "name" : "Cube",
            "scale" : [
                3.716413974761963,
                2.858659505844116,
                1.175954818725586
            ],
            "translation" : [
                -2.5859498977661133,
                -1.676478624343872,
                1.157004952430725
            ]
        },
        {
            "mesh" : 1,
            "name" : "Cylinder",
            "scale" : [
                0.5464035272598267,
                2.3123531341552734,
                0.5464035272598267
            ]
        },
        {
            "mesh" : 2,
            "name" : "Cylinder.001",
            "scale" : [
                0.5464035272598267,
                2.3123531341552734,
                0.5464035272598267
            ],
            "translation" : [
                -5.049860000610352,
                0,
                0
            ]
        },
        {
            "mesh" : 3,
            "name" : "Cylinder.002",
            "rotation" : [
                0.7071068286895752,
                0,
                0,
                0.7071068286895752
            ],
            "scale" : [
                1.0861625671386719,
                0.5305613875389099,
                1.0861625671386719
            ],
            "translation" : [
                -2.558244228363037,
                4.973333358764648,
                0
            ]
        },
        {
            "mesh" : 4,
            "name" : "Cube.001",
            "rotation" : [
                0,
                0,
                1,
                4.371138828673793e-08
            ],
            "scale" : [
                0.6444819569587708,
                0.6444819569587708,
                0.6444819569587708
            ],
            "translation" : [
                -2.558244228363037,
                4.973333358764648,
                0
            ]
        },
        {
            "mesh" : 5,
            "name" : "Cylinder.003",
            "scale" : [
                0.039246682077646255,
                1.446332335472107,
                0.039246682077646255
            ],
            "translation" : [
                0,
                3.3896901607513428,
                0
            ]
        },
        {
            "mesh" : 6,
            "name" : "Cylinder.004",
            "rotation" : [
                0,
                -1,
                0,
                4.371138828673793e-08
            ],
            "scale" : [
                0.039246682077646255,
                1.446332335472107,
                0.039246682077646255
            ],
            "translation" : [
                -5.072171211242676,
                3.3896901607513428,
                0
            ]
        },
        {
            "mesh" : 7,
            "name" : "Cube.002",
            "scale" : [
                4.037312984466553,
                3.9471256732940674,
                1.175954818725586
            ],
            "translation" : [
                -2.5859498977661133,
                -0.8777108192443848,
                1.157004952430725
            ]
        }
    ],
    "materials" : [
        {
            "doubleSided" : true,
            "name" : "Material.003",
            "pbrMetallicRoughness" : {
                "baseColorFactor" : [
                    0.800000011920929,
                    0.800000011920929,
                    0.800000011920929,
                    1
                ],
                "metallicFactor" : 0,
                "roughnessFactor" : 0.5
            }
        },
        {
            "doubleSided" : true,
            "name" : "Material.002",
            "pbrMetallicRoughness" : {
                "baseColorFactor" : [
                    0.8000000715255737,
                    0,
                    0,
                    1
                ],
                "metallicFactor" : 0,
                "roughnessFactor" : 0.5
            }
        },
        {
            "doubleSided" : true,
            "name" : "Material.001",
            "pbrMetallicRoughness" : {
                "baseColorFactor" : [
                    0,
                    0.00402869563549757,
                    0.8000000715255737,
                    1
                ],
                "metallicFactor" : 0,
                "roughnessFactor" : 0.5
            }
        },
        {
            "doubleSided" : true,
            "name" : "Material.005",
            "pbrMetallicRoughness" : {
                "baseColorFactor" : [
                    0.016895603388547897,
                    0.8000000715255737,
                    0,
                    1
                ],
                "metallicFactor" : 0,
                "roughnessFactor" : 0.5
            }
        },
        {
            "doubleSided" : true,
            "name" : "Material.004",
            "pbrMetallicRoughness" : {
                "baseColorFactor" : [
                    0,
                    0,
                    0,
                    1
                ],
                "metallicFactor" : 0,
                "roughnessFactor" : 0.5
            }
        }
    ],
    "meshes" : [
        {
            "name" : "Cube.001",
            "primitives" : [
                {
                    "attributes" : {
                        "POSITION" : 0,
                        "NORMAL" : 1,
                        "TEXCOORD_0" : 2
                    },
                    "indices" : 3,
                    "material" : 0
                }
            ]
        },
        {
            "name" : "Cylinder.002",
            "primitives" : [
                {
                    "attributes" : {
                        "POSITION" : 4,
                        "NORMAL" : 5,
                        "TEXCOORD_0" : 6
                    },
                    "indices" : 7,
                    "material" : 1
                }
            ]
        },
        {
            "name" : "Cylinder.004",
            "primitives" : [
                {
                    "attributes" : {
                        "POSITION" : 8,
                        "NORMAL" : 9,
                        "TEXCOORD_0" : 10
                    },
                    "indices" : 7,
                    "material" : 2
                }
            ]
        },
        {
            "name" : "Cylinder.005",
            "primitives" : [
                {
                    "attributes" : {
                        "POSITION" : 11,
                        "NORMAL" : 12,
                        "TEXCOORD_0" : 13
                    },
                    "indices" : 14,
                    "material" : 3
                }
            ]
        },
        {
            "name" : "Cube.002",
            "primitives" : [
                {
                    "attributes" : {
                        "POSITION" : 15,
                        "NORMAL" : 16,
                        "TEXCOORD_0" : 17
                    },
                    "indices" : 18,
                    "material" : 4
                }
            ]
        },
        {
            "name" : "Cylinder.006",
            "primitives" : [
                {
                    "attributes" : {
                        "POSITION" : 19,
                        "NORMAL" : 20,
                        "TEXCOORD_0" : 21
                    },
                    "indices" : 22,
                    "material" : 4
                }
            ]
        },
        {
            "name" : "Cylinder.008",
            "primitives" : [
                {
                    "attributes" : {
                        "POSITION" : 23,
                        "NORMAL" : 24,
                        "TEXCOORD_0" : 25
                    },
                    "indices" : 22,
                    "material" : 4
                }
            ]
        },
        {
            "name" : "Cube.004",
            "primitives" : [
                {
                    "attributes" : {
                        "POSITION" : 26,
                        "NORMAL" : 27,
                        "TEXCOORD_0" : 28
                    },
                    "indices" : 29,
                    "material" : 4
                }
            ]
        }
    ],
    "accessors" : [
        {
            "bufferView" : 0,
            "componentType" : 5126,
            "count" : 24,
            "max" : [
                1,
                1,
                -0.007140398025512695
            ],
            "min" : [
                -1,
                -1,
                -1
            ],
            "type" : "VEC3"
        },
        {
            "bufferView" : 1,
            "componentType" : 5126,
            "count" : 24,
            "type" : "VEC3"
        },
        {
            "bufferView" : 2,
            "componentType" : 5126,
            "count" : 24,
            "type" : "VEC2"
        },
        {
            "bufferView" : 3,
            "componentType" : 5123,
            "count" : 36,
            "type" : "SCALAR"
        },
        {
            "bufferView" : 4,
            "componentType" : 5126,
            "count" : 384,
            "max" : [
                1,
                1.1253197193145752,
                1
            ],
            "min" : [
                -1,
                -1,
                -1
            ],
            "type" : "VEC3"
        },
        {
            "bufferView" : 5,
            "componentType" : 5126,
            "count" : 384,
            "type" : "VEC3"
        },
        {
            "bufferView" : 6,
            "componentType" : 5126,
            "count" : 384,
            "type" : "VEC2"
        },
        {
            "bufferView" : 7,
            "componentType" : 5123,
            "count" : 744,
            "type" : "SCALAR"
        },
        {
            "bufferView" : 8,
            "componentType" : 5126,
            "count" : 384,
            "max" : [
                1,
                1.1253197193145752,
                1
            ],
            "min" : [
                -1,
                -1,
                -1
            ],
            "type" : "VEC3"
        },
        {
            "bufferView" : 9,
            "componentType" : 5126,
            "count" : 384,
            "type" : "VEC3"
        },
        {
            "bufferView" : 10,
            "componentType" : 5126,
            "count" : 384,
            "type" : "VEC2"
        },
        {
            "bufferView" : 11,
            "componentType" : 5126,
            "count" : 192,
            "max" : [
                1,
                1,
                1
            ],
            "min" : [
                -1,
                -1,
                -1
            ],
            "type" : "VEC3"
        },
        {
            "bufferView" : 12,
            "componentType" : 5126,
            "count" : 192,
            "type" : "VEC3"
        },
        {
            "bufferView" : 13,
            "componentType" : 5126,
            "count" : 192,
            "type" : "VEC2"
        },
        {
            "bufferView" : 14,
            "componentType" : 5123,
            "count" : 372,
            "type" : "SCALAR"
        },
        {
            "bufferView" : 15,
            "componentType" : 5126,
            "count" : 48,
            "max" : [
                1,
                1,
                1
            ],
            "min" : [
                -1,
                -1,
                -1
            ],
            "type" : "VEC3"
        },
        {
            "bufferView" : 16,
            "componentType" : 5126,
            "count" : 48,
            "type" : "VEC3"
        },
        {
            "bufferView" : 17,
            "componentType" : 5126,
            "count" : 48,
            "type" : "VEC2"
        },
        {
            "bufferView" : 18,
            "componentType" : 5123,
            "count" : 84,
            "type" : "SCALAR"
        },
        {
            "bufferView" : 19,
            "componentType" : 5126,
            "count" : 384,
            "max" : [
                1,
                1.0003504753112793,
                1
            ],
            "min" : [
                -72.77130889892578,
                -1,
                -1
            ],
            "type" : "VEC3"
        },
        {
            "bufferView" : 20,
            "componentType" : 5126,
            "count" : 384,
            "type" : "VEC3"
        },
        {
            "bufferView" : 21,
            "componentType" : 5126,
            "count" : 384,
            "type" : "VEC2"
        },
        {
            "bufferView" : 22,
            "componentType" : 5123,
            "count" : 744,
            "type" : "SCALAR"
        },
        {
            "bufferView" : 23,
            "componentType" : 5126,
            "count" : 384,
            "max" : [
                1,
                1.0003504753112793,
                1
            ],
            "min" : [
                -72.77130889892578,
                -1,
                -1
            ],
            "type" : "VEC3"
        },
        {
            "bufferView" : 24,
            "componentType" : 5126,
            "count" : 384,
            "type" : "VEC3"
        },
        {
            "bufferView" : 25,
            "componentType" : 5126,
            "count" : 384,
            "type" : "VEC2"
        },
        {
            "bufferView" : 26,
            "componentType" : 5126,
            "count" : 80,
            "max" : [
                1,
                1,
                0.0014390945434570312
            ],
            "min" : [
                -1,
                -1,
                -1
            ],
            "type" : "VEC3"
        },
        {
            "bufferView" : 27,
            "componentType" : 5126,
            "count" : 80,
            "type" : "VEC3"
        },
        {
            "bufferView" : 28,
            "componentType" : 5126,
            "count" : 80,
            "type" : "VEC2"
        },
        {
            "bufferView" : 29,
            "componentType" : 5123,
            "count" : 150,
            "type" : "SCALAR"
        }
    ],
    "bufferViews" : [
        {
            "buffer" : 0,
            "byteLength" : 288,
            "byteOffset" : 0
        },
        {
            "buffer" : 0,
            "byteLength" : 288,
            "byteOffset" : 288
        },
        {
            "buffer" : 0,
            "byteLength" : 192,
            "byteOffset" : 576
        },
        {
            "buffer" : 0,
            "byteLength" : 72,
            "byteOffset" : 768
        },
        {
            "buffer" : 0,
            "byteLength" : 4608,
            "byteOffset" : 840
        },
        {
            "buffer" : 0,
            "byteLength" : 4608,
            "byteOffset" : 5448
        },
        {
            "buffer" : 0,
            "byteLength" : 3072,
            "byteOffset" : 10056
        },
        {
            "buffer" : 0,
            "byteLength" : 1488,
            "byteOffset" : 13128
        },
        {
            "buffer" : 0,
            "byteLength" : 4608,
            "byteOffset" : 14616
        },
        {
            "buffer" : 0,
            "byteLength" : 4608,
            "byteOffset" : 19224
        },
        {
            "buffer" : 0,
            "byteLength" : 3072,
            "byteOffset" : 23832
        },
        {
            "buffer" : 0,
            "byteLength" : 2304,
            "byteOffset" : 26904
        },
        {
            "buffer" : 0,
            "byteLength" : 2304,
            "byteOffset" : 29208
        },
        {
            "buffer" : 0,
            "byteLength" : 1536,
            "byteOffset" : 31512
        },
        {
            "buffer" : 0,
            "byteLength" : 744,
            "byteOffset" : 33048
        },
        {
            "buffer" : 0,
            "byteLength" : 576,
            "byteOffset" : 33792
        },
        {
            "buffer" : 0,
            "byteLength" : 576,
            "byteOffset" : 34368
        },
        {
            "buffer" : 0,
            "byteLength" : 384,
            "byteOffset" : 34944
        },
        {
            "buffer" : 0,
            "byteLength" : 168,
            "byteOffset" : 35328
        },
        {
            "buffer" : 0,
            "byteLength" : 4608,
            "byteOffset" : 35496
        },
        {
            "buffer" : 0,
            "byteLength" : 4608,
            "byteOffset" : 40104
        },
        {
            "buffer" : 0,
            "byteLength" : 3072,
            "byteOffset" : 44712
        },
        {
            "buffer" : 0,
            "byteLength" : 1488,
            "byteOffset" : 47784
        },
        {
            "buffer" : 0,
            "byteLength" : 4608,
            "byteOffset" : 49272
        },
        {
            "buffer" : 0,
            "byteLength" : 4608,
            "byteOffset" : 53880
        },
        {
            "buffer" : 0,
            "byteLength" : 3072,
            "byteOffset" : 58488
        },
        {
            "buffer" : 0,
            "byteLength" : 960,
            "byteOffset" : 61560
        },
        {
            "buffer" : 0,
            "byteLength" : 960,
            "byteOffset" : 62520
        },
        {
            "buffer" : 0,
            "byteLength" : 640,
            "byteOffset" : 63480
        },
        {
            "buffer" : 0,
            "byteLength" : 300,
            "byteOffset" : 64120
        }
    ],
    "buffers" : [
        {
            "byteLength" : 64420,
            "uri" : "data:application/octet-stream;base64,"
        }
    ]
}
