{
    "asset" : {
        "generator" : "Khronos glTF Blender I/O v3.2.40",
        "version" : "2.0"
    },
    "scene" : 0,
    "scenes" : [
        {
            "name" : "Scene",
            "nodes" : [
                0
            ]
        }
    ],
    "nodes" : [
        {
            "mesh" : 0,
            "name" : "Cube.003",
            "rotation" : [
                0.572191596031189,
                -0.4154477119445801,
                0.572191596031189,
                0.4154476821422577
            ],
            "scale" : [
                0.39882513880729675,
                1.1248120069503784,
                0.21190641820430756
            ],
            "translation" : [
                -0.06605885922908783,
                0,
                -0.0008611081866547465
            ]
        }
    ],
    "materials" : [
        {
            "doubleSided" : true,
            "name" : "Material.001",
            "pbrMetallicRoughness" : {
                "metallicFactor" : 0,
                "roughnessFactor" : 0.5
            }
        }
    ],
    "meshes" : [
        {
            "name" : "Cube.003",
            "primitives" : [
                {
                    "attributes" : {
                        "POSITION" : 0,
                        "NORMAL" : 1,
                        "TEXCOORD_0" : 2
                    },
                    "indices" : 3,
                    "material" : 0
                }
            ]
        }
    ],
    "accessors" : [
        {
            "bufferView" : 0,
            "componentType" : 5126,
            "count" : 394,
            "max" : [
                0.5735762119293213,
                1.124055027961731,
                3.694580554962158
            ],
            "min" : [
                -0.5735752582550049,
                0.24134425818920135,
                -3.694580554962158
            ],
            "type" : "VEC3"
        },
        {
            "bufferView" : 1,
            "componentType" : 5126,
            "count" : 394,
            "type" : "VEC3"
        },
        {
            "bufferView" : 2,
            "componentType" : 5126,
            "count" : 394,
            "type" : "VEC2"
        },
        {
            "bufferView" : 3,
            "componentType" : 5123,
            "count" : 672,
            "type" : "SCALAR"
        }
    ],
    "bufferViews" : [
        {
            "buffer" : 0,
            "byteLength" : 4728,
            "byteOffset" : 0
        },
        {
            "buffer" : 0,
            "byteLength" : 4728,
            "byteOffset" : 4728
        },
        {
            "buffer" : 0,
            "byteLength" : 3152,
            "byteOffset" : 9456
        },
        {
            "buffer" : 0,
            "byteLength" : 1344,
            "byteOffset" : 12608
        }
    ],
    "buffers" : [
        {
            "byteLength" : 13952,
            "uri" : "data:application/octet-stream;base64,"
        }
    ]
}
